<svg xmlns="http://www.w3.org/2000/svg" width="1500" height="420" viewBox="0 0 1500 420" role="img" aria-labelledby="title desc">
<title id="title">RadFields</title><desc id="desc">Radiology reports, structured by organ and finding. A flat anatomical schematic maps lungs, liver and kidneys into organ-specific text fields.</desc>
<g aria-label="RadFields" fill="#263e48" transform="translate(66 196) scale(0.108 -0.108)">
<path transform="translate(0 0)" d="M73 0V660H341Q395 660 439.0 651.5Q483 643 517.0 627.0Q551 611 574.5 587.5Q598 564 610.0 533.5Q622 503 622 466Q622 431 611.0 402.5Q600 374 578.0 353.0Q556 332 523.0 318.5Q490 305 446 300V285Q497 280 527.5 261.5Q558 243 575.5 212.0Q593 181 606 135L646 0H487L456 125Q447 165 430.0 187.5Q413 210 387.0 219.5Q361 229 324 229H217V0ZM217 337H331Q399 337 436.0 363.0Q473 389 473 444Q473 498 438.5 523.5Q404 549 335 549H217Z"/>
<path transform="translate(660.4814814814815 0)" d="M189 -14Q145 -14 111.0 3.5Q77 21 58.0 54.0Q39 87 39 136Q39 179 55.5 208.0Q72 237 104.0 255.0Q136 273 183.0 285.0Q230 297 290 306Q322 311 342.5 315.5Q363 320 373.0 330.5Q383 341 383 361Q383 389 363.0 409.0Q343 429 300 429Q271 429 246.5 419.0Q222 409 204.5 389.0Q187 369 179 338L52 377Q64 418 86.5 448.0Q109 478 141.0 498.5Q173 519 214.0 529.0Q255 539 303 539Q380 539 428.5 514.5Q477 490 501.0 438.5Q525 387 525 306V216Q525 181 526.5 145.0Q528 109 530.5 72.5Q533 36 536 0H409Q405 25 401.5 57.5Q398 90 396 123H378Q364 85 338.0 54.0Q312 23 274.5 4.5Q237 -14 189 -14ZM250 90Q269 90 288.5 97.0Q308 104 326.5 116.5Q345 129 360.5 148.0Q376 167 386 191L384 275L407 270Q389 257 365.0 249.5Q341 242 315.5 238.0Q290 234 265.0 229.0Q240 224 220.5 216.0Q201 208 189.5 194.5Q178 181 178 157Q178 126 198.0 108.0Q218 90 250 90Z"/>
<path transform="translate(1226.962962962963 0)" d="M257 -14Q191 -14 141.5 20.0Q92 54 65.0 116.0Q38 178 38 263Q38 343 62.0 405.0Q86 467 133.0 502.0Q180 537 250 537Q301 537 336.0 518.0Q371 499 393.5 462.5Q416 426 429 375H452Q445 407 439.5 437.5Q434 468 431.0 496.0Q428 524 428 545V715H572V258V0H452V152H432Q421 96 398.0 59.0Q375 22 339.5 4.0Q304 -14 257 -14ZM305 104Q338 104 361.0 118.0Q384 132 399.0 154.5Q414 177 421.0 203.5Q428 230 428 253V272Q428 291 422.5 311.5Q417 332 407.0 352.0Q397 372 382.0 387.5Q367 403 347.0 412.0Q327 421 303 421Q267 421 242.0 401.0Q217 381 203.0 345.5Q189 310 189 263Q189 215 203.5 179.0Q218 143 244.0 123.5Q270 104 305 104Z"/>
<path transform="translate(1847.4444444444446 0)" d="M73 0V660H217V0ZM142 247V365H527V247ZM142 537V660H564V537Z"/>
<path transform="translate(2421.925925925926 0)" d="M66 0V525H210V0ZM139 604Q97 604 74.5 621.5Q52 639 52 673Q52 708 74.5 726.0Q97 744 139 744Q182 744 204.5 726.0Q227 708 227 673Q227 640 204.5 622.0Q182 604 139 604Z"/>
<path transform="translate(2680.4074074074074 0)" d="M310 -14Q245 -14 194.5 4.0Q144 22 109.0 56.0Q74 90 55.5 140.0Q37 190 37 253Q37 315 54.5 367.5Q72 420 106.0 458.5Q140 497 189.0 518.0Q238 539 300 539Q360 539 407.0 519.5Q454 500 485.5 461.0Q517 422 531.5 365.5Q546 309 542 236L130 232V311L459 314L408 274Q415 327 401.0 361.0Q387 395 360.5 411.0Q334 427 302 427Q264 427 235.0 407.0Q206 387 190.0 348.5Q174 310 174 256Q174 171 211.5 131.0Q249 91 310 91Q338 91 357.5 98.5Q377 106 389.5 118.0Q402 130 409.5 145.0Q417 160 422 175L547 148Q538 111 520.5 81.5Q503 52 474.0 30.5Q445 9 404.5 -2.5Q364 -14 310 -14Z"/>
<path transform="translate(3242.8888888888887 0)" d="M66 0V715H208V0Z"/>
<path transform="translate(3498.37037037037 0)" d="M257 -14Q191 -14 141.5 20.0Q92 54 65.0 116.0Q38 178 38 263Q38 343 62.0 405.0Q86 467 133.0 502.0Q180 537 250 537Q301 537 336.0 518.0Q371 499 393.5 462.5Q416 426 429 375H452Q445 407 439.5 437.5Q434 468 431.0 496.0Q428 524 428 545V715H572V258V0H452V152H432Q421 96 398.0 59.0Q375 22 339.5 4.0Q304 -14 257 -14ZM305 104Q338 104 361.0 118.0Q384 132 399.0 154.5Q414 177 421.0 203.5Q428 230 428 253V272Q428 291 422.5 311.5Q417 332 407.0 352.0Q397 372 382.0 387.5Q367 403 347.0 412.0Q327 421 303 421Q267 421 242.0 401.0Q217 381 203.0 345.5Q189 310 189 263Q189 215 203.5 179.0Q218 143 244.0 123.5Q270 104 305 104Z"/>
<path transform="translate(4118.851851851851 0)" d="M276 -14Q223 -14 180.0 -4.0Q137 6 106.0 25.0Q75 44 56.0 70.5Q37 97 31 130L141 175Q145 153 163.0 134.0Q181 115 211.5 103.5Q242 92 285 92Q331 92 356.0 105.5Q381 119 381 144Q381 163 367.0 174.0Q353 185 326.0 193.0Q299 201 261 208Q224 217 185.5 227.0Q147 237 114.5 255.0Q82 273 61.5 302.5Q41 332 41 378Q41 426 67.0 462.0Q93 498 143.0 518.5Q193 539 265 539Q330 539 379.0 521.5Q428 504 459.5 471.5Q491 439 502 394L385 355Q381 379 365.5 397.0Q350 415 324.5 424.0Q299 433 265 433Q222 433 198.5 419.0Q175 405 175 382Q175 363 190.5 351.0Q206 339 234.0 331.5Q262 324 300 316Q340 308 378.0 297.5Q416 287 446.5 270.0Q477 253 495.0 225.0Q513 197 513 153Q513 101 485.0 63.5Q457 26 404.0 6.0Q351 -14 276 -14Z"/>
</g>
<g aria-label="Radiology reports, structured by organ and finding." fill="#526c79" transform="translate(70 254) scale(0.027 -0.027)">
<path transform="translate(0 0)" d="M86 0V720H352Q429 720 483.0 695.0Q537 670 565.5 625.5Q594 581 594 520Q594 459 565.5 413.5Q537 368 483.0 342.5Q429 317 352 317H146V389H349Q429 389 470.5 424.0Q512 459 512 520Q512 580 471.0 614.0Q430 648 349 648H168V0ZM508 0 125 357H237L632 0Z"/>
<path transform="translate(656.0 0)" d="M393 0Q389 17 387.5 39.0Q386 61 386 95H381V339Q381 397 354.5 424.5Q328 452 269 452Q211 452 176.5 428.5Q142 405 138 362H61Q66 436 123.0 478.0Q180 520 272 520Q367 520 413.0 475.0Q459 430 459 340V95Q459 73 462.0 49.5Q465 26 470 0ZM218 -10Q139 -10 92.5 28.5Q46 67 46 134Q46 201 92.0 238.0Q138 275 226 290L404 320V254L238 228Q182 219 153.0 198.0Q124 177 124 137Q124 98 150.5 78.0Q177 58 229 58Q296 58 338.5 88.5Q381 119 381 168L394 97Q378 46 331.5 18.0Q285 -10 218 -10Z"/>
<path transform="translate(1189.0 0)" d="M451 0V119L461 116Q442 58 391.5 24.0Q341 -10 271 -10Q202 -10 150.5 23.0Q99 56 70.5 115.0Q42 174 42 253Q42 333 71.0 393.0Q100 453 152.0 486.0Q204 519 274 519Q346 519 395.0 484.0Q444 449 462 385L446 383V720H526V0ZM286 60Q363 60 406.5 112.5Q450 165 450 256Q450 345 406.0 397.0Q362 449 286 449Q210 449 167.0 397.0Q124 345 124 253Q124 163 167.0 111.5Q210 60 286 60Z"/>
<path transform="translate(1795.0 0)" d="M80 0V510H160V0ZM74 626V720H166V626Z"/>
<path transform="translate(2035.0 0)" d="M292 -10Q217 -10 160.0 25.0Q103 60 71.5 120.5Q40 181 40 257Q40 334 72.0 393.0Q104 452 160.5 486.0Q217 520 292 520Q368 520 424.5 486.0Q481 452 512.5 393.0Q544 334 544 257Q544 181 512.5 120.5Q481 60 424.5 25.0Q368 -10 292 -10ZM292 58Q344 58 382.0 83.5Q420 109 441.0 154.0Q462 199 462 258Q462 346 415.5 399.0Q369 452 292 452Q216 452 169.0 399.0Q122 346 122 258Q122 199 143.0 154.0Q164 109 202.5 83.5Q241 58 292 58Z"/>
<path transform="translate(2619.0 0)" d="M80 0V720H160V0Z"/>
<path transform="translate(2859.0 0)" d="M292 -10Q217 -10 160.0 25.0Q103 60 71.5 120.5Q40 181 40 257Q40 334 72.0 393.0Q104 452 160.5 486.0Q217 520 292 520Q368 520 424.5 486.0Q481 452 512.5 393.0Q544 334 544 257Q544 181 512.5 120.5Q481 60 424.5 25.0Q368 -10 292 -10ZM292 58Q344 58 382.0 83.5Q420 109 441.0 154.0Q462 199 462 258Q462 346 415.5 399.0Q369 452 292 452Q216 452 169.0 399.0Q122 346 122 258Q122 199 143.0 154.0Q164 109 202.5 83.5Q241 58 292 58Z"/>
<path transform="translate(3443.0 0)" d="M283 -215Q192 -215 131.5 -172.5Q71 -130 58 -60H134Q145 -100 183.5 -123.5Q222 -147 288 -147Q366 -147 406.0 -104.5Q446 -62 446 20V129L456 127Q439 69 388.0 34.5Q337 0 267 0Q200 0 149.0 32.5Q98 65 70.0 123.0Q42 181 42 258Q42 336 71.0 395.0Q100 454 152.5 486.5Q205 519 275 519Q347 519 395.5 484.0Q444 449 460 384L451 383V510H526V20Q526 -89 461.0 -152.0Q396 -215 283 -215ZM287 69Q362 69 406.0 121.0Q450 173 450 262Q450 349 406.0 399.5Q362 450 287 450Q211 450 167.5 399.0Q124 348 124 259Q124 172 168.0 120.5Q212 69 287 69Z"/>
<path transform="translate(4049.0 0)" d="M124 -205 238 60 256 88 423 510H505L209 -205ZM247 -5 18 510H106L303 49Z"/>
<path transform="translate(4772.0 0)" d="M80 0V510H155V380H160V0ZM160 266 147 387Q165 452 211.0 486.0Q257 520 317 520Q342 520 351 516V439Q346 441 337.0 441.5Q328 442 315 442Q239 442 199.5 396.5Q160 351 160 266Z"/>
<path transform="translate(5147.0 0)" d="M289 -10Q216 -10 160.0 24.5Q104 59 72.0 119.0Q40 179 40 257Q40 335 71.5 394.5Q103 454 160.0 487.0Q217 520 291 520Q362 520 414.5 489.0Q467 458 495.5 402.0Q524 346 524 270Q524 260 523.5 251.0Q523 242 521 231H100V298H472L446 261Q446 353 405.5 402.5Q365 452 291 452Q215 452 168.5 399.5Q122 347 122 258Q122 167 168.5 112.5Q215 58 293 58Q342 58 379.0 79.5Q416 101 433 141H509Q484 71 425.5 30.5Q367 -10 289 -10Z"/>
<path transform="translate(5711.0 0)" d="M332 -9Q260 -9 211.0 26.0Q162 61 144 125L160 127V-205H80V510H155V391L144 394Q163 453 216.0 486.5Q269 520 339 520Q407 520 457.5 487.0Q508 454 536.0 395.0Q564 336 564 257Q564 177 535.0 117.0Q506 57 454.0 24.0Q402 -9 332 -9ZM320 61Q396 61 439.0 113.5Q482 166 482 257Q482 347 439.0 398.5Q396 450 320 450Q244 450 200.0 397.5Q156 345 156 254Q156 165 200.0 113.0Q244 61 320 61Z"/>
<path transform="translate(6317.0 0)" d="M292 -10Q217 -10 160.0 25.0Q103 60 71.5 120.5Q40 181 40 257Q40 334 72.0 393.0Q104 452 160.5 486.0Q217 520 292 520Q368 520 424.5 486.0Q481 452 512.5 393.0Q544 334 544 257Q544 181 512.5 120.5Q481 60 424.5 25.0Q368 -10 292 -10ZM292 58Q344 58 382.0 83.5Q420 109 441.0 154.0Q462 199 462 258Q462 346 415.5 399.0Q369 452 292 452Q216 452 169.0 399.0Q122 346 122 258Q122 199 143.0 154.0Q164 109 202.5 83.5Q241 58 292 58Z"/>
<path transform="translate(6901.0 0)" d="M80 0V510H155V380H160V0ZM160 266 147 387Q165 452 211.0 486.0Q257 520 317 520Q342 520 351 516V439Q346 441 337.0 441.5Q328 442 315 442Q239 442 199.5 396.5Q160 351 160 266Z"/>
<path transform="translate(7276.0 0)" d="M284 -9Q199 -9 160.5 29.5Q122 68 122 141V629L202 659V142Q202 99 224.0 79.0Q246 59 296 59Q316 59 330.5 61.5Q345 64 354 68V0Q344 -4 325.5 -6.5Q307 -9 284 -9ZM17 442V510H354V442Z"/>
<path transform="translate(7653.0 0)" d="M253 -10Q159 -10 103.0 33.5Q47 77 39 157H116Q123 108 159.0 82.0Q195 56 255 56Q308 56 338.0 76.0Q368 96 368 133Q368 159 351.0 178.5Q334 198 283 211L201 232Q131 250 96.0 287.5Q61 325 61 377Q61 443 110.0 481.5Q159 520 243 520Q326 520 378.0 480.0Q430 440 437 369H360Q353 410 322.0 432.0Q291 454 240 454Q191 454 164.0 435.5Q137 417 137 383Q137 357 156.5 338.0Q176 319 222 306L302 284Q373 265 409.0 226.0Q445 187 445 132Q445 65 394.0 27.5Q343 -10 253 -10Z"/>
<path transform="translate(8126.0 0)" d="M77 -144V-103Q106 -92 119.0 -68.5Q132 -45 132 3L163 0H77V102H178V21Q178 -43 154.0 -85.0Q130 -127 77 -144Z"/>
<path transform="translate(8581.0 0)" d="M253 -10Q159 -10 103.0 33.5Q47 77 39 157H116Q123 108 159.0 82.0Q195 56 255 56Q308 56 338.0 76.0Q368 96 368 133Q368 159 351.0 178.5Q334 198 283 211L201 232Q131 250 96.0 287.5Q61 325 61 377Q61 443 110.0 481.5Q159 520 243 520Q326 520 378.0 480.0Q430 440 437 369H360Q353 410 322.0 432.0Q291 454 240 454Q191 454 164.0 435.5Q137 417 137 383Q137 357 156.5 338.0Q176 319 222 306L302 284Q373 265 409.0 226.0Q445 187 445 132Q445 65 394.0 27.5Q343 -10 253 -10Z"/>
<path transform="translate(9054.0 0)" d="M284 -9Q199 -9 160.5 29.5Q122 68 122 141V629L202 659V142Q202 99 224.0 79.0Q246 59 296 59Q316 59 330.5 61.5Q345 64 354 68V0Q344 -4 325.5 -6.5Q307 -9 284 -9ZM17 442V510H354V442Z"/>
<path transform="translate(9431.0 0)" d="M80 0V510H155V380H160V0ZM160 266 147 387Q165 452 211.0 486.0Q257 520 317 520Q342 520 351 516V439Q346 441 337.0 441.5Q328 442 315 442Q239 442 199.5 396.5Q160 351 160 266Z"/>
<path transform="translate(9806.0 0)" d="M246 -10Q196 -10 157.0 10.5Q118 31 96.0 68.5Q74 106 74 155V510H154V176Q154 118 182.5 89.0Q211 60 264 60Q312 60 349.0 82.0Q386 104 407.5 143.5Q429 183 429 234L442 113Q417 56 364.0 23.0Q311 -10 246 -10ZM434 0V120H429V510H509V0Z"/>
<path transform="translate(10395.0 0)" d="M282 -10Q212 -10 157.5 24.5Q103 59 71.5 119.5Q40 180 40 257Q40 334 71.5 393.0Q103 452 157.5 486.0Q212 520 281 520Q338 520 383.5 498.0Q429 476 458.5 435.5Q488 395 496 341H422Q412 390 376.0 421.0Q340 452 283 452Q234 452 198.0 428.0Q162 404 142.0 360.0Q122 316 122 257Q122 198 142.0 153.0Q162 108 198.5 83.0Q235 58 284 58Q339 58 376.0 88.5Q413 119 423 168H497Q488 115 457.5 74.5Q427 34 382.0 12.0Q337 -10 282 -10Z"/>
<path transform="translate(10928.0 0)" d="M284 -9Q199 -9 160.5 29.5Q122 68 122 141V629L202 659V142Q202 99 224.0 79.0Q246 59 296 59Q316 59 330.5 61.5Q345 64 354 68V0Q344 -4 325.5 -6.5Q307 -9 284 -9ZM17 442V510H354V442Z"/>
<path transform="translate(11305.0 0)" d="M246 -10Q196 -10 157.0 10.5Q118 31 96.0 68.5Q74 106 74 155V510H154V176Q154 118 182.5 89.0Q211 60 264 60Q312 60 349.0 82.0Q386 104 407.5 143.5Q429 183 429 234L442 113Q417 56 364.0 23.0Q311 -10 246 -10ZM434 0V120H429V510H509V0Z"/>
<path transform="translate(11894.0 0)" d="M80 0V510H155V380H160V0ZM160 266 147 387Q165 452 211.0 486.0Q257 520 317 520Q342 520 351 516V439Q346 441 337.0 441.5Q328 442 315 442Q239 442 199.5 396.5Q160 351 160 266Z"/>
<path transform="translate(12269.0 0)" d="M289 -10Q216 -10 160.0 24.5Q104 59 72.0 119.0Q40 179 40 257Q40 335 71.5 394.5Q103 454 160.0 487.0Q217 520 291 520Q362 520 414.5 489.0Q467 458 495.5 402.0Q524 346 524 270Q524 260 523.5 251.0Q523 242 521 231H100V298H472L446 261Q446 353 405.5 402.5Q365 452 291 452Q215 452 168.5 399.5Q122 347 122 258Q122 167 168.5 112.5Q215 58 293 58Q342 58 379.0 79.5Q416 101 433 141H509Q484 71 425.5 30.5Q367 -10 289 -10Z"/>
<path transform="translate(12833.0 0)" d="M451 0V119L461 116Q442 58 391.5 24.0Q341 -10 271 -10Q202 -10 150.5 23.0Q99 56 70.5 115.0Q42 174 42 253Q42 333 71.0 393.0Q100 453 152.0 486.0Q204 519 274 519Q346 519 395.0 484.0Q444 449 462 385L446 383V720H526V0ZM286 60Q363 60 406.5 112.5Q450 165 450 256Q450 345 406.0 397.0Q362 449 286 449Q210 449 167.0 397.0Q124 345 124 253Q124 163 167.0 111.5Q210 60 286 60Z"/>
<path transform="translate(13639.0 0)" d="M332 -9Q260 -9 211.0 26.0Q162 61 144 125L155 127V0H80V720H160V391L149 394Q168 453 218.5 486.5Q269 520 339 520Q407 520 457.5 487.0Q508 454 536.0 395.0Q564 336 564 257Q564 177 535.0 117.0Q506 57 454.0 24.0Q402 -9 332 -9ZM320 61Q396 61 439.0 113.5Q482 166 482 257Q482 347 439.0 398.5Q396 450 320 450Q244 450 200.0 397.5Q156 345 156 254Q156 165 200.0 113.0Q244 61 320 61Z"/>
<path transform="translate(14245.0 0)" d="M124 -205 238 60 256 88 423 510H505L209 -205ZM247 -5 18 510H106L303 49Z"/>
<path transform="translate(14968.0 0)" d="M292 -10Q217 -10 160.0 25.0Q103 60 71.5 120.5Q40 181 40 257Q40 334 72.0 393.0Q104 452 160.5 486.0Q217 520 292 520Q368 520 424.5 486.0Q481 452 512.5 393.0Q544 334 544 257Q544 181 512.5 120.5Q481 60 424.5 25.0Q368 -10 292 -10ZM292 58Q344 58 382.0 83.5Q420 109 441.0 154.0Q462 199 462 258Q462 346 415.5 399.0Q369 452 292 452Q216 452 169.0 399.0Q122 346 122 258Q122 199 143.0 154.0Q164 109 202.5 83.5Q241 58 292 58Z"/>
<path transform="translate(15552.0 0)" d="M80 0V510H155V380H160V0ZM160 266 147 387Q165 452 211.0 486.0Q257 520 317 520Q342 520 351 516V439Q346 441 337.0 441.5Q328 442 315 442Q239 442 199.5 396.5Q160 351 160 266Z"/>
<path transform="translate(15927.0 0)" d="M283 -215Q192 -215 131.5 -172.5Q71 -130 58 -60H134Q145 -100 183.5 -123.5Q222 -147 288 -147Q366 -147 406.0 -104.5Q446 -62 446 20V129L456 127Q439 69 388.0 34.5Q337 0 267 0Q200 0 149.0 32.5Q98 65 70.0 123.0Q42 181 42 258Q42 336 71.0 395.0Q100 454 152.5 486.5Q205 519 275 519Q347 519 395.5 484.0Q444 449 460 384L451 383V510H526V20Q526 -89 461.0 -152.0Q396 -215 283 -215ZM287 69Q362 69 406.0 121.0Q450 173 450 262Q450 349 406.0 399.5Q362 450 287 450Q211 450 167.5 399.0Q124 348 124 259Q124 172 168.0 120.5Q212 69 287 69Z"/>
<path transform="translate(16533.0 0)" d="M393 0Q389 17 387.5 39.0Q386 61 386 95H381V339Q381 397 354.5 424.5Q328 452 269 452Q211 452 176.5 428.5Q142 405 138 362H61Q66 436 123.0 478.0Q180 520 272 520Q367 520 413.0 475.0Q459 430 459 340V95Q459 73 462.0 49.5Q465 26 470 0ZM218 -10Q139 -10 92.5 28.5Q46 67 46 134Q46 201 92.0 238.0Q138 275 226 290L404 320V254L238 228Q182 219 153.0 198.0Q124 177 124 137Q124 98 150.5 78.0Q177 58 229 58Q296 58 338.5 88.5Q381 119 381 168L394 97Q378 46 331.5 18.0Q285 -10 218 -10Z"/>
<path transform="translate(17066.0 0)" d="M80 0V510H155V390H160V0ZM445 0V334Q445 392 416.0 421.0Q387 450 330 450Q280 450 241.5 428.0Q203 406 181.5 367.0Q160 328 160 276L147 397Q173 454 226.5 487.0Q280 520 348 520Q428 520 476.5 474.5Q525 429 525 355V0Z"/>
<path transform="translate(17865.0 0)" d="M393 0Q389 17 387.5 39.0Q386 61 386 95H381V339Q381 397 354.5 424.5Q328 452 269 452Q211 452 176.5 428.5Q142 405 138 362H61Q66 436 123.0 478.0Q180 520 272 520Q367 520 413.0 475.0Q459 430 459 340V95Q459 73 462.0 49.5Q465 26 470 0ZM218 -10Q139 -10 92.5 28.5Q46 67 46 134Q46 201 92.0 238.0Q138 275 226 290L404 320V254L238 228Q182 219 153.0 198.0Q124 177 124 137Q124 98 150.5 78.0Q177 58 229 58Q296 58 338.5 88.5Q381 119 381 168L394 97Q378 46 331.5 18.0Q285 -10 218 -10Z"/>
<path transform="translate(18398.0 0)" d="M80 0V510H155V390H160V0ZM445 0V334Q445 392 416.0 421.0Q387 450 330 450Q280 450 241.5 428.0Q203 406 181.5 367.0Q160 328 160 276L147 397Q173 454 226.5 487.0Q280 520 348 520Q428 520 476.5 474.5Q525 429 525 355V0Z"/>
<path transform="translate(18997.0 0)" d="M451 0V119L461 116Q442 58 391.5 24.0Q341 -10 271 -10Q202 -10 150.5 23.0Q99 56 70.5 115.0Q42 174 42 253Q42 333 71.0 393.0Q100 453 152.0 486.0Q204 519 274 519Q346 519 395.0 484.0Q444 449 462 385L446 383V720H526V0ZM286 60Q363 60 406.5 112.5Q450 165 450 256Q450 345 406.0 397.0Q362 449 286 449Q210 449 167.0 397.0Q124 345 124 253Q124 163 167.0 111.5Q210 60 286 60Z"/>
<path transform="translate(19803.0 0)" d="M122 0V582Q122 652 162.5 691.0Q203 730 286 730Q306 730 317.5 728.0Q329 726 337 723V660Q330 662 317.5 664.0Q305 666 291 666Q245 666 223.5 643.0Q202 620 202 578V0ZM17 442V510H326V442Z"/>
<path transform="translate(20157.0 0)" d="M80 0V510H160V0ZM74 626V720H166V626Z"/>
<path transform="translate(20397.0 0)" d="M80 0V510H155V390H160V0ZM445 0V334Q445 392 416.0 421.0Q387 450 330 450Q280 450 241.5 428.0Q203 406 181.5 367.0Q160 328 160 276L147 397Q173 454 226.5 487.0Q280 520 348 520Q428 520 476.5 474.5Q525 429 525 355V0Z"/>
<path transform="translate(20996.0 0)" d="M451 0V119L461 116Q442 58 391.5 24.0Q341 -10 271 -10Q202 -10 150.5 23.0Q99 56 70.5 115.0Q42 174 42 253Q42 333 71.0 393.0Q100 453 152.0 486.0Q204 519 274 519Q346 519 395.0 484.0Q444 449 462 385L446 383V720H526V0ZM286 60Q363 60 406.5 112.5Q450 165 450 256Q450 345 406.0 397.0Q362 449 286 449Q210 449 167.0 397.0Q124 345 124 253Q124 163 167.0 111.5Q210 60 286 60Z"/>
<path transform="translate(21602.0 0)" d="M80 0V510H160V0ZM74 626V720H166V626Z"/>
<path transform="translate(21842.0 0)" d="M80 0V510H155V390H160V0ZM445 0V334Q445 392 416.0 421.0Q387 450 330 450Q280 450 241.5 428.0Q203 406 181.5 367.0Q160 328 160 276L147 397Q173 454 226.5 487.0Q280 520 348 520Q428 520 476.5 474.5Q525 429 525 355V0Z"/>
<path transform="translate(22441.0 0)" d="M283 -215Q192 -215 131.5 -172.5Q71 -130 58 -60H134Q145 -100 183.5 -123.5Q222 -147 288 -147Q366 -147 406.0 -104.5Q446 -62 446 20V129L456 127Q439 69 388.0 34.5Q337 0 267 0Q200 0 149.0 32.5Q98 65 70.0 123.0Q42 181 42 258Q42 336 71.0 395.0Q100 454 152.5 486.5Q205 519 275 519Q347 519 395.5 484.0Q444 449 460 384L451 383V510H526V20Q526 -89 461.0 -152.0Q396 -215 283 -215ZM287 69Q362 69 406.0 121.0Q450 173 450 262Q450 349 406.0 399.5Q362 450 287 450Q211 450 167.5 399.0Q124 348 124 259Q124 172 168.0 120.5Q212 69 287 69Z"/>
<path transform="translate(23047.0 0)" d="M76 0V103H179V0Z"/>
</g>
<g id="organ-fields-icon" transform="translate(914 31) scale(1.05)">
<g fill="none" stroke-linecap="round" stroke-linejoin="round">
<g id="torso" stroke="#81969b" stroke-width="2">
<path d="M151 27v17c0 14-10 20-29 26l-24 8c-19 6-27 20-25 39l10 60 9 74c2 22-2 42-7 59M193 27v17c0 14 10 20 29 26l24 8c19 6 27 20 25 39l-10 60-9 74c-2 22 2 42 7 59"/>
<path d="M153 40q19 12 38 0"/>
</g>
<g id="scan-levels" stroke="#a2b2b5" stroke-width="1" stroke-dasharray="3 6" opacity="0.65">
<path d="M79 119h187M87 194h172M92 249h160"/>
</g>
<g id="lungs" fill="#81b5b4" stroke="#477f83" stroke-width="1.8">
<path d="M153 79c-14-7-32 16-41 34-10 20-16 42-12 54 3 9 14 2 24-2l22-8c12-4 14-14 14-34 0-21-1-39-7-44Z"/>
<path d="M190 79c13-7 32 16 41 34 10 20 16 42 12 54-3 9-14 2-23-2l-16-6c-5-2-5-9-5-15 1-7-7-11-11-16-6-8-9-13-6-27 1-11 3-18 8-22Z"/>
<path d="M112 112q16 13 47 12M105 137q14 6 28 24M211 139q12-9 20-26" fill="none" stroke-width="1.3"/>
</g>
<g id="heart" fill="#cc8076" stroke="#a06059" stroke-width="1.5">
<path d="M175 116c-3-5-8-4-11 1-6 8-6 18-1 25 8 10 20 16 31 17 5-12 1-26-6-31-4-3-7-5-8-10Z"/>
</g>
<g id="liver" fill="#d3aa70" stroke="#aa8047" stroke-width="1.8">
<path d="M108 184c13-14 40-12 61-8 15 3 25 0 38 2 4 1 4 5 0 8-11 8-24 12-34 16-18 8-32 20-51 23-10 2-15-9-15-21 0-9-1-15 1-20Z"/>
<path d="M167 181q-8 10-7 22" fill="none" stroke-width="1.2"/>
</g>
<g id="kidneys" fill="#86a6c6" stroke="#5b7fa3" stroke-width="1.8">
<path d="M143 238c-8-6-18 1-20 12-2 11 2 25 12 26 8 2 14-7 9-12-6-5-5-9 0-13 5-4 4-10-1-13Z"/>
<path d="M207 224c8-6 18 1 20 12 2 11-2 25-12 26-8 2-14-7-9-12 6-5 5-9 0-13-5-4-4-10 1-13Z"/>
</g>
<g id="organ-to-field-connections" stroke-width="1.7">
<path d="M235 123h55q10 0 10-10v-8q0-10 10-10h23" stroke="#659698"/>
<path d="M201 187h132" stroke="#b59360"/>
<path d="M225 246h64q11 0 11 11v11q0 11 11 11h22" stroke="#7292b1"/>
<circle cx="235" cy="123" r="3" fill="#659698" stroke="none"/>
<circle cx="201" cy="187" r="3" fill="#b59360" stroke="none"/>
<circle cx="225" cy="246" r="3" fill="#7292b1" stroke="none"/>
</g>
<g id="structured-text-fields" stroke-width="1.5">
<rect x="333" y="66" width="121" height="58" rx="8" stroke="#659698"/>
<rect x="333" y="158" width="121" height="58" rx="8" stroke="#b59360"/>
<rect x="333" y="250" width="121" height="58" rx="8" stroke="#7292b1"/>
<g stroke="#81969b" stroke-width="2">
<path d="M374 86h63M374 96h49M374 106h56M374 178h63M374 188h47M374 198h56M374 270h63M374 280h49M374 290h56"/>
</g>
<path d="M352 85c-5-2-9 10-8 16 2 3 8 0 9-2l-1-14ZM359 85c5-2 9 10 8 16-2 3-8 0-9-2l1-14Z" fill="#81b5b4" stroke="#477f83" stroke-width="0.7"/>
<path d="M345 180c5-5 13-2 20-2 4 1 1 4-5 7-4 2-8 8-13 8-3 0-5-8-2-13Z" fill="#d3aa70" stroke="#aa8047" stroke-width="0.7"/>
<path d="M352 270c-6-5-10 4-8 11 2 6 10 5 9 1l-4-5 3-3ZM362 270c6-5 10 4 8 11-2 6-10 5-9 1l4-5-3-3Z" fill="#86a6c6" stroke="#5b7fa3" stroke-width="0.7"/>
</g>
</g>

</g></svg>